<?xml version="1.0" encoding="utf-8"?>
<!DOCTYPE svg PUBLIC "-//W3C//DTD SVG 1.1//EN" "http://www.w3.org/Graphics/SVG/1.1/DTD/svg11.dtd">
<svg xmlns="http://www.w3.org/2000/svg" xmlns:xlink="http://www.w3.org/1999/xlink" version="1.1" baseProfile="full" width="259" height="243.326" viewBox="0 0 259.00 243.33" enable-background="new 0 0 259.00 243.33" xml:space="preserve">
	<path fill="none" stroke-width="25" stroke-linejoin="round" stroke="#FFFFFF" stroke-opacity="1" d="M 41.2572,51.7606L 41.9648,78.4136L 44.4239,101.511L 46.6739,118.511L 49.5905,129.427L 59.5905,157.427L 68.5905,174.761L 80.0905,192.261L 90.4239,203.927L 101.757,213.927L 111.091,220.927L 123.091,227.594L 129.424,230.594L 139.091,226.261L 147.091,221.594L 158.424,213.261L 170.757,202.261L 181.757,189.927L 189.757,175.594L 194.091,169.261L 200.424,154.594L 206.424,139.261L 210.091,125.594L 212.091,116.594L 213.757,107.927L 215.757,97.5941L 216.424,86.2607L 217.424,76.5941L 218.091,63.9274L 218.091,54.5941L 218.091,52.2607L 199.757,45.5941L 176.091,39.2607L 164.424,36.9274L 154.091,35.2607L 143.424,33.5941L 131.424,32.9274L 125.757,32.2607L 108.424,33.9274L 74.1739,41.2607L 41.2572,51.7606 Z "/>
	<path fill="none" stroke-width="15" stroke-linejoin="round" stroke="#FFC800" stroke-opacity="1" d="M 41.0072,51.5784L 41.7148,78.2314L 44.1738,101.329L 46.4238,118.329L 49.3405,129.245L 59.3405,157.245L 68.3405,174.579L 79.8405,192.079L 90.1738,203.745L 101.507,213.745L 110.84,220.745L 122.84,227.412L 129.174,230.412L 138.84,226.079L 146.84,221.412L 158.174,213.079L 170.507,202.079L 181.507,189.745L 189.507,175.412L 193.84,169.079L 200.174,154.412L 206.174,139.079L 209.84,125.412L 211.84,116.412L 213.507,107.745L 215.507,97.4119L 216.174,86.0786L 217.174,76.4119L 217.84,63.7453L 217.84,54.4119L 217.84,52.0786L 199.507,45.4119L 175.84,39.0786L 164.174,36.7453L 153.84,35.0786L 143.174,33.4119L 131.174,32.7453L 125.507,32.0786L 108.174,33.7453L 73.9238,41.0786L 41.0072,51.5784 Z "/>
	<path fill="none" stroke-width="10" stroke-linejoin="round" stroke="#FFFFFF" stroke-opacity="1" d="M 112.554,223.988L 130.629,230.988L 174.865,199.488L 190.086,165.988L 202.965,148.172L 204.356,139.488L 208.067,125.36L 198.842,116.614L 190.54,113.116L 185.005,104.371L 178.893,96.1719L 176.817,88.9568L 173.012,82.3977L 169.898,76.8225L 167.477,74.5268L 169.898,71.9031L 171.974,66.3279L 170.936,59.4409L 171.628,54.5215L 172.32,45.9947L 172.666,40.4194L 172.32,30.5808L 171.628,25.0056L 170.244,19.4304L 168.515,13.855L 166.785,10.9035L 164.017,8.27985L 158.136,8.93573L 155.369,11.8874L 150.872,17.4626L 148.104,23.6938L 143.607,30.5808L 141.877,34.1883L 139.11,37.4678L 136.688,37.4678L 133.921,37.1399L 131.153,31.5647L 128.04,24.3496L 124.926,18.4465L 123.542,15.1669L 123.542,8.60785L 123.542,5.98413L 121.121,5.00006L 116.97,16.4785L 114.202,25.3335L 112.126,32.8765L 111.435,37.1399L 112.472,42.3872L 110.397,45.0108L 105.9,46.3227L 100.018,49.9302L 95.1753,52.8818L 91.37,55.8333L 90.6781,58.7849L 91.024,61.7366L 88.2565,63.0483L 79.608,63.7043L 70.6136,64.3602L 66.1163,65.3441L 61.2732,67.3118L 55.7381,69.9354L 53.6625,73.215L 54.0084,76.1666L 57.1219,77.8063L 56.43,82.7256L 58.5056,85.0214C 58.5056,85.0214 58.8516,85.6771 60.5813,87.3171C 62.311,88.9568 64.3866,90.5966 64.3866,90.5966L 68.192,90.9246L 74.073,91.2525L 77.8783,91.9084L 80.9918,93.8762L 87.9106,94.2041L 86.1809,96.8277L 84.4512,100.435L 82.0296,103.059L 78.2242,105.027L 74.7649,106.338L 71.9973,105.683L 68.8839,105.027L 66.1163,107.978L 64.0407,111.258L 64.3866,115.193L 66.1163,117.161L 68.8839,117.161L 71.9973,116.505L 71.9973,119.129L 74.073,120.768L 77.8783,122.408L 83.4134,122.408L 88.6024,122.408L 92.0619,121.096L 97.5969,119.129L 100.364,118.801L 100.71,122.736L 101.748,125.688L 103.132,129.295L 105.9,132.903L 107.283,140.118L 106.591,144.381L 106.937,146.677L 108.667,157.499L 107.283,169.306L 108.667,179.8L 110.051,190.951L 112.126,196.854L 112.126,206.693L 110.281,218.936L 112.554,223.988 Z "/>
	<path fill="#55555A" fill-opacity="1" stroke-width="0.2" stroke-linejoin="round" d="M 112.351,223.994L 130.426,230.994L 174.663,199.494L 189.884,165.994L 202.762,148.178L 204.153,139.494L 207.865,125.366L 198.64,116.62L 190.337,113.122L 184.802,104.377L 178.691,96.1777L 176.615,88.9626L 172.81,82.4036L 169.696,76.8284L 167.275,74.5327L 169.696,71.909L 171.772,66.3337L 170.734,59.4467L 171.426,54.5273L 172.118,46.0005L 172.464,40.4253L 172.118,30.5867L 171.426,25.0114L 170.042,19.4362L 168.312,13.8609L 166.583,10.9094L 163.815,8.28571L 157.934,8.94159L 155.167,11.8932L 150.669,17.4684L 147.902,23.6996L 143.405,30.5867L 141.675,34.1942L 138.907,37.4737L 136.486,37.4737L 133.718,37.1458L 130.951,31.5706L 127.837,24.3555L 124.724,18.4523L 123.34,15.1728L 123.34,8.61371L 123.34,5.98999L 120.919,5.00592L 116.767,16.4844L 114,25.3394L 111.924,32.8823L 111.232,37.1458L 112.27,42.3931L 110.194,45.0167L 105.697,46.3286L 99.8161,49.936L 94.973,52.8876L 91.1676,55.8392L 90.4757,58.7908L 90.8217,61.7424L 88.0542,63.0542L 79.4056,63.7101L 70.4112,64.366L 65.914,65.3499L 61.0708,67.3176L 55.5358,69.9412L 53.4601,73.2209L 53.8061,76.1724L 56.9195,77.8122L 56.2277,82.7315L 58.3033,85.0273C 58.3033,85.0273 58.6493,85.6829 60.3789,87.3229C 62.1086,88.9626 64.1843,90.6025 64.1843,90.6025L 67.9896,90.9304L 73.8706,91.2584L 77.6759,91.9143L 80.7894,93.882L 87.7082,94.21L 85.9785,96.8336L 84.2488,100.441L 81.8272,103.065L 78.0219,105.032L 74.5625,106.344L 71.795,105.688L 68.6815,105.032L 65.914,107.984L 63.8383,111.264L 64.1843,115.199L 65.914,117.167L 68.6815,117.167L 71.795,116.511L 71.795,119.135L 73.8706,120.774L 77.6759,122.414L 83.211,122.414L 88.4001,122.414L 91.8595,121.102L 97.3946,119.135L 100.162,118.807L 100.508,122.742L 101.546,125.694L 102.93,129.301L 105.697,132.909L 107.081,140.124L 106.389,144.387L 106.735,146.683L 108.465,157.505L 107.081,169.312L 108.465,179.806L 109.848,190.957L 111.924,196.86L 111.924,206.699L 110.079,218.942L 112.351,223.994 Z "/>
	<path fill="none" stroke-width="25" stroke-linejoin="round" stroke="#FFFFFF" stroke-opacity="1" d="M 79.3525,192.493L 89.6858,204.16L 101.019,214.16L 110.353,221.16L 122.353,227.826L 128.686,230.826L 138.353,226.493L 146.353,221.826L 157.686,213.493L 170.019,202.493L 181.019,190.16L 189.019,175.826L 193.352,169.493L 199.686,154.826L 205.686,139.493L 209.352,125.826L 211.352,116.826"/>
	<path fill="none" stroke-width="15" stroke-linejoin="round" stroke="#FFC800" stroke-opacity="1" d="M 79.8382,192.117L 90.1715,203.784L 101.505,213.784L 110.838,220.784L 122.838,227.451L 129.172,230.451L 138.838,226.117L 146.838,221.451L 158.172,213.117L 170.505,202.117L 181.505,189.784L 189.505,175.451L 193.838,169.117L 200.172,154.451L 206.172,139.117L 209.838,125.451L 211.838,116.451"/>
	<path fill="#058AE7" fill-opacity="1" stroke-width="3" stroke-linejoin="round" stroke="#FFFFFF" stroke-opacity="1" d="M 55.9536,207.17L 51.2185,167.191L 1.5,175.698L 20.4403,194.411L 10.9702,219.078L 55.9536,207.17 Z "/>
	<path fill="#058AE7" fill-opacity="1" stroke-width="3" stroke-linejoin="round" stroke="#FFFFFF" stroke-opacity="1" d="M 247.032,220.71L 237.368,196.462L 257.5,179.142L 207.573,167.018L 199.521,208.586L 247.032,220.71 Z "/>
	<path fill="#55555A" fill-opacity="1" stroke-width="3" stroke-linejoin="round" stroke="#FFFFFF" stroke-opacity="1" d="M 42.1273,197.281L 46.075,230.865L 49.2967,230.191L 50.6389,229.98L 51.7098,229.812L 52.9051,229.624L 54.3954,229.39L 56.197,229.107L 57.669,228.875L 58.6083,228.728L 62.7902,228.071L 71.9267,226.636L 85.7129,224.823L 99.7696,223.148L 108.743,222.532L 116.085,222.225L 123.754,222.225L 132.401,222.379L 142.354,222.84L 156.059,223.763L 171.902,225.501L 185.264,227.454L 196.579,229.711L 209.486,232.931L 217.186,196.413L 208.386,192.894L 194.307,190.474L 185.754,190.237L 176.283,188.76L 165.359,187.315L 152.2,186.036L 138.605,185.524L 125.718,185.038L 119.569,184.806L 106.133,185.009L 96.1801,185.47L 84.5959,186.7L 73.9907,188.392L 64.9649,190.207L 54.3961,191.134L 44.7168,192.894L 41.6369,195.093C 41.0988,195.268 42.1178,197.292 42.1273,197.281 Z "/>
	<path fill="#FFFFFF" fill-opacity="1" stroke-width="5" stroke-linejoin="round" stroke="#FFFFFF" stroke-opacity="1" d="M 22.6114,159.284L 34.5068,200.214L 46.6034,198.194L 62.4351,195.551L 78.8228,193.26L 95.5321,191.144L 106.199,190.367L 114.927,189.978L 124.042,189.978L 134.321,190.173L 146.152,190.756L 162.444,191.921L 181.277,194.118L 197.16,196.584L 210.61,199.437L 223.798,201.768L 236.211,159.802L 223.236,156.234L 208.032,152.053L 197.742,149.567L 186.484,147.7L 173.499,145.875L 157.857,144.259L 141.696,143.612L 126.377,142.998L 119.067,142.705L 103.096,142.961L 91.2652,143.544L 77.495,145.098L 64.8885,147.235L 54.1595,149.528L 41.8089,152.87L 30.0284,156.496L 23.1286,158.766L 22.6114,159.284 Z "/>
	<path fill="#0096FF" fill-opacity="1" stroke-width="0.2" stroke-linejoin="round" d="M 22.6114,159.086L 34.5068,200.016L 39.896,199.116L 46.6034,197.996L 54.8346,196.622L 62.4351,195.353L 78.8228,193.062L 95.5321,190.946L 106.199,190.169L 114.927,189.78L 124.042,189.78L 134.321,189.975L 146.152,190.557L 162.444,191.723L 181.277,193.92L 197.16,196.386L 210.61,199.239L 223.799,201.57L 236.211,159.604L 223.236,156.036L 208.032,151.855L 197.742,149.369L 186.484,147.502L 173.499,145.677L 157.857,144.061L 141.696,143.414L 126.377,142.8L 119.067,142.507L 103.096,142.763L 91.2653,143.346L 77.4951,144.9L 64.8885,147.037L 54.1595,149.33L 41.8089,152.671L 30.0284,156.298L 23.1286,158.568"/>
	<g>
		<path fill="#FFFFFF" fill-opacity="1" stroke-width="0.2" stroke-linejoin="round" d="M 41.2014,186.455L 40.5839,182.756C 42.9305,183.209 45.4946,183.203 48.2761,182.739C 51.6593,182.174 53.1624,180.762 52.7853,178.504C 52.5108,176.86 51.3346,176.211 49.2567,176.558L 45.8045,177.134C 41.2936,177.888 38.6951,176.209 38.0089,172.099C 37.2542,167.579 40.0891,164.782 46.5135,163.709C 48.9794,163.298 51.3755,163.268 53.7018,163.62L 54.3193,167.318C 51.976,166.865 49.5714,166.844 47.1055,167.255C 43.4067,167.873 41.7373,169.26 42.0974,171.417C 42.3718,173.061 43.4017,173.734 45.187,173.436L 48.6392,172.859C 53.4395,172.058 56.1826,173.712 56.8687,177.822C 57.6405,182.445 54.9736,185.266 48.8681,186.285C 46.0866,186.749 43.531,186.806 41.2014,186.455 Z "/>
		<path fill="#FFFFFF" fill-opacity="1" stroke-width="0.2" stroke-linejoin="round" d="M 79.9091,158.905L 73.3017,182.39L 68.8896,183.007L 56.5116,162.175L 61.3842,161.494L 70.6111,177.481L 75.081,159.58L 79.9091,158.905 Z "/>
		<path fill="#FFFFFF" fill-opacity="1" stroke-width="0.2" stroke-linejoin="round" d="M 88.7823,168.81C 89.1599,173.993 91.6493,176.416 96.2505,176.081C 100.739,175.754 102.794,172.999 102.416,167.816C 102.045,162.716 99.6148,160.33 95.1267,160.657C 90.5256,160.992 88.4108,163.71 88.7823,168.81 Z M 84.5056,169.216C 83.9553,161.663 87.4086,157.615 94.8655,157.072C 102.213,156.536 106.161,160.045 106.712,167.599C 107.259,175.109 103.859,179.131 96.5117,179.667C 89.3873,180.186 85.3853,176.702 84.5056,169.216 Z M 98.6839,150.993L 98.8997,153.955L 95.5486,154.199L 95.3328,151.237L 98.6839,150.993 Z M 93.3829,151.379L 93.5988,154.341L 90.2526,154.585L 90.0368,151.623L 93.3829,151.379 Z "/>
		<path fill="#FFFFFF" fill-opacity="1" stroke-width="0.2" stroke-linejoin="round" d="M 123.119,167.19C 123.02,172.386 125.278,175.028 129.89,175.115C 134.389,175.2 136.688,172.645 136.786,167.449C 136.883,162.336 134.682,159.738 130.182,159.653C 125.57,159.565 123.215,162.078 123.119,167.19 Z M 118.823,167.204C 118.966,159.632 122.775,155.917 130.25,156.058C 137.616,156.198 141.227,160.053 141.084,167.625C 140.941,175.154 137.188,178.849 129.822,178.709C 122.68,178.574 119.014,174.739 118.823,167.204 Z "/>
		<path fill="#FFFFFF" fill-opacity="1" stroke-width="0.2" stroke-linejoin="round" d="M 163.092,179.375C 161.24,180.034 158.963,180.267 156.26,180.074C 148.396,179.511 144.742,175.36 145.296,167.62C 145.82,160.295 150.081,156.919 158.081,157.491C 160.521,157.666 162.676,158.186 164.546,159.052L 164.278,162.792C 162.416,161.823 160.368,161.259 158.134,161.099C 152.784,160.716 149.933,162.992 149.58,167.926C 149.197,173.276 151.531,176.131 156.581,176.493C 157.329,176.546 158.189,176.482 159.161,176.301L 159.625,169.818L 163.755,170.113L 163.092,179.375 Z "/>
		<path fill="#FFFFFF" fill-opacity="1" stroke-width="0.2" stroke-linejoin="round" d="M 175.989,181.893L 178.18,163.1L 175.856,162.829L 176.054,161.136L 182.744,159.711L 180.101,182.372L 175.989,181.893 Z "/>
		<path fill="#FFFFFF" fill-opacity="1" stroke-width="0.2" stroke-linejoin="round" d="M 184.888,183.011L 185.368,179.923C 193.521,175.951 197.855,172.301 198.372,168.974C 198.675,167.021 197.488,165.836 194.81,165.42C 192.547,165.069 190.325,165.302 188.144,166.121L 188.719,162.415C 190.885,161.699 193.099,161.517 195.362,161.868C 200.767,162.707 203.134,165.288 202.463,169.609C 201.871,173.42 198.29,177.029 191.72,180.434L 200.568,181.808L 200.017,185.361L 184.888,183.011 Z "/>
		<path fill="#FFFFFF" fill-opacity="1" stroke-width="0.2" stroke-linejoin="round" d="M 209.577,164.592L 222.632,167.361L 221.951,170.57L 212.379,168.539L 210.872,173.842C 211.502,173.744 212.372,173.813 213.481,174.048C 218.985,175.215 221.261,178.041 220.311,182.524C 219.317,187.21 215.967,188.948 210.26,187.738C 208.222,187.305 206.249,186.568 204.34,185.526L 205.054,182.161C 206.94,183.307 208.953,184.107 211.092,184.561C 213.998,185.177 215.721,184.212 216.261,181.665C 216.758,179.321 215.604,177.851 212.8,177.256C 210.508,176.77 208.315,176.571 206.221,176.658L 209.577,164.592 Z "/>
	</g>
	<g>
		<path fill="#FFFFFF" fill-opacity="1" stroke-width="0.32" stroke-linejoin="round" d="M 57.4314,218.389C 60.4829,217.909 61.7264,215.873 61.1619,212.279C 60.6812,209.219 58.9151,207.928 55.8636,208.408L 52.8275,208.885L 54.3954,218.866L 57.4314,218.389 Z M 52.0407,221.661L 49.729,206.945L 55.4917,206.04C 60.3631,205.275 63.1631,207.212 63.8917,211.85C 64.7042,217.022 62.6747,219.991 57.8034,220.756L 52.0407,221.661 Z "/>
		<path fill="#FFFFFF" fill-opacity="1" stroke-width="0.32" stroke-linejoin="round" d="M 68.8565,213.413C 69.1543,215.678 70.1802,216.695 71.934,216.465C 73.69,216.234 74.419,214.986 74.1211,212.721C 73.8305,210.511 72.8072,209.522 71.0512,209.753C 69.2974,209.983 68.5658,211.203 68.8565,213.413 Z M 66.1219,213.813C 65.6438,210.178 67.1949,208.125 70.7752,207.654C 74.3555,207.183 76.3847,208.765 76.8628,212.401C 77.3401,216.029 75.7885,218.079 72.2083,218.55C 68.6434,219.019 66.6146,217.44 66.1219,213.813 Z "/>
		<path fill="#FFFFFF" fill-opacity="1" stroke-width="0.32" stroke-linejoin="round" d="M 79.6218,217.555L 78.1957,206.712L 80.3108,206.433L 80.8603,207.978C 81.7608,206.782 82.8754,206.096 84.2039,205.921C 86.7729,205.583 88.233,206.75 88.5842,209.42L 89.4835,216.258L 86.7471,216.618L 85.8478,209.78C 85.6902,208.581 85.0154,208.06 83.8234,208.217C 82.9355,208.334 82.1151,208.803 81.3624,209.624L 82.3582,217.195L 79.6218,217.555 Z "/>
		<path fill="#FFFFFF" fill-opacity="1" stroke-width="0.32" stroke-linejoin="round" d="M 92.2089,215.992L 90.9149,205.132L 93.0332,204.88L 93.5638,206.431C 94.4789,205.246 95.6017,204.574 96.9323,204.415C 99.5052,204.109 100.951,205.293 101.27,207.967L 102.086,214.815L 99.3451,215.142L 98.5291,208.294C 98.386,207.093 97.7176,206.564 96.5238,206.706C 95.6346,206.812 94.8086,207.271 94.0459,208.082L 94.9496,215.665L 92.2089,215.992 Z "/>
		<path fill="#FFFFFF" fill-opacity="1" stroke-width="0.32" stroke-linejoin="round" d="M 109.494,203.548C 112.811,203.409 114.54,205.032 114.682,208.418C 114.701,208.869 114.689,209.321 114.645,209.774L 107.392,210.078C 107.456,211.619 108.619,212.342 110.879,212.247C 111.982,212.201 113.082,212.051 114.176,211.796L 114.268,213.98C 113.313,214.229 112.145,214.383 110.764,214.441C 106.801,214.607 104.741,212.827 104.585,209.101C 104.436,205.542 106.072,203.691 109.494,203.548 Z M 107.312,208.163L 111.974,207.968L 111.971,207.885C 111.907,206.373 111.112,205.648 109.584,205.713C 108.128,205.774 107.37,206.59 107.312,208.163 Z "/>
		<path fill="#FFFFFF" fill-opacity="1" stroke-width="0.32" stroke-linejoin="round" d="M 117.401,214.225L 117.401,203.288L 119.535,203.288L 119.878,204.682C 120.838,203.753 121.852,203.288 122.921,203.288L 122.921,205.515C 121.892,205.515 120.972,205.943 120.161,206.798L 120.161,214.225L 117.401,214.225 Z "/>
		<path fill="#FFFFFF" fill-opacity="1" stroke-width="0.32" stroke-linejoin="round" d="M 124.593,213.718L 124.633,211.425C 125.84,211.934 127.238,212.202 128.826,212.23C 130.015,212.251 130.616,211.88 130.63,211.115C 130.643,210.387 130.249,210.015 129.449,210.001L 127.47,209.966C 125.248,209.926 124.156,208.813 124.195,206.627C 124.236,204.334 125.878,203.216 129.122,203.274C 130.498,203.298 131.788,203.53 132.994,203.97L 132.953,206.259C 131.749,205.753 130.434,205.488 129.01,205.462C 127.517,205.436 126.764,205.804 126.75,206.566C 126.737,207.297 127.165,207.67 128.034,207.685L 129.803,207.717C 132.234,207.76 133.43,208.875 133.391,211.061C 133.35,213.352 131.781,214.47 128.684,214.415C 127.164,214.388 125.801,214.156 124.593,213.718 Z "/>
		<path fill="#FFFFFF" fill-opacity="1" stroke-width="0.32" stroke-linejoin="round" d="M 135.474,214.513L 136.164,199.632L 138.921,199.76L 138.698,204.568C 139.854,204.052 141.057,203.823 142.307,203.881C 145.095,204.01 146.441,205.126 146.343,207.228C 146.272,208.753 145.246,209.901 143.264,210.673L 146.462,215.022L 143.089,214.866L 140.42,210.831L 140.479,209.552C 142.49,209.221 143.518,208.573 143.562,207.61C 143.608,206.624 142.972,206.101 141.653,206.04C 140.73,205.997 139.711,206.241 138.596,206.772L 138.231,214.64L 135.474,214.513 Z "/>
		<path fill="#FFFFFF" fill-opacity="1" stroke-width="0.32" stroke-linejoin="round" d="M 151.962,200.539L 151.815,202.72L 149.062,202.535L 149.208,200.353L 151.962,200.539 Z M 151.696,204.49L 150.962,215.402L 148.208,215.216L 148.942,204.304L 151.696,204.49 Z "/>
		<path fill="#FFFFFF" fill-opacity="1" stroke-width="0.32" stroke-linejoin="round" d="M 153.529,215.574L 154.264,204.662L 156.392,204.806L 156.641,206.219C 157.661,205.357 158.705,204.961 159.771,205.033L 159.622,207.255C 158.595,207.186 157.648,207.551 156.782,208.35L 156.283,215.76L 153.529,215.574 Z "/>
		<path fill="#FFFFFF" fill-opacity="1" stroke-width="0.32" stroke-linejoin="round" d="M 168.933,216.812C 168.011,216.921 167.068,216.923 166.102,216.817C 162.237,216.393 160.51,214.3 160.923,210.538C 161.305,207.052 163.43,205.521 167.295,205.945C 168.26,206.051 169.181,206.256 170.058,206.56L 169.819,208.737C 168.943,208.431 168.09,208.232 167.262,208.142C 165.089,207.903 163.89,208.802 163.666,210.839C 163.413,213.152 164.373,214.427 166.546,214.666C 167.375,214.757 168.25,214.748 169.172,214.639L 168.933,216.812 Z "/>
		<path fill="#FFFFFF" fill-opacity="1" stroke-width="0.32" stroke-linejoin="round" d="M 170.922,217.273L 173.076,202.533L 175.807,202.932L 175.033,208.229C 176.018,207.434 177.174,207.134 178.5,207.328C 181.064,207.702 182.151,209.222 181.762,211.887L 180.765,218.711L 178.034,218.312L 179.031,211.488C 179.205,210.292 178.698,209.607 177.509,209.433C 176.622,209.304 175.705,209.531 174.758,210.116L 173.653,217.672L 170.922,217.273 Z "/>
		<path fill="#FFFFFF" fill-opacity="1" stroke-width="0.32" stroke-linejoin="round" d="M 190.477,209.184C 193.733,209.834 195.029,211.82 194.366,215.143C 194.278,215.586 194.159,216.022 194.01,216.452L 186.89,215.032C 186.588,216.544 187.547,217.522 189.765,217.964C 190.848,218.18 191.952,218.294 193.076,218.305L 192.648,220.45C 191.661,220.466 190.49,220.339 189.134,220.068C 185.245,219.292 183.664,217.076 184.394,213.419C 185.091,209.925 187.119,208.514 190.477,209.184 Z M 187.265,213.152L 191.841,214.065L 191.858,213.984C 192.154,212.5 191.552,211.608 190.053,211.309C 188.623,211.023 187.694,211.638 187.265,213.152 Z "/>
		<path fill="#FFFFFF" fill-opacity="1" stroke-width="0.32" stroke-linejoin="round" d="M 195.72,221.252L 198.367,210.641L 200.437,211.157L 200.382,212.796C 201.658,212.012 202.947,211.783 204.247,212.107C 206.761,212.734 207.692,214.355 207.04,216.968L 205.371,223.659L 202.693,222.991L 204.362,216.3C 204.655,215.127 204.218,214.395 203.051,214.104C 202.182,213.887 201.247,214.023 200.246,214.51L 198.398,221.92L 195.72,221.252 Z "/>
	</g>
</svg>
